{"title":"IMAX.Journey.Into.Amazing.Caves.2001.720p.BRRip.Xvid.AC3.DiVERSi","uid":6915187,"size":1338340041,"categoryP":"video","categoryS":"hd___movies","magnet":"?xt=urn:btih:48b2a48ba40b2956fcdba564e47fbae93ec6f040&amp;dn=IMAX.Journey.Into.Amazing.Caves.2001.720p.BRRip.Xvid.AC3.DiVERSi&amp;tr=udp%3A%2F%2Ftracker.openbittorrent.com%3A80&amp;tr=udp%3A%2F%2Fopen.demonii.com%3A1337&amp;tr=udp%3A%2F%2Ftracker.coppersurfer.tk%3A6969&amp;tr=udp%3A%2F%2Fexodus.desync.com%3A6969","seeders":3,"leechers":2,"uploader":"TvTeam","files":4,"time":1325002779,"description":". \n &lt;a href=&quot;\nhttp://www.torrenting.com&quot; rel=&quot;nofollow&quot; target=&quot;_NEW&quot;&gt;\nhttp://www.torrenting.com&lt;/a&gt;          :     Once &amp; For all ;)\n\n\n               www . Torrenting . Com \n\n(((((((((((((= Enjoy No RAR releases =))))))))))))))))))))\n\n\n...................................NFO:....................................\n\n.                                                                \n @@@@@@@   @@@  @@@  @@@  @@@@@@@@  @@@@@@@   @@@@@@    @@@  @@@@@@@  @@@ @@@ \n @@@@@@@@  @@@  @@@  @@@  @@@@@@@@  @@@@@@@@  @@@@@@@   @@@  @@@@@@@  @@@ @@@ \n @@!  @@@  @@!  @@!  @@@  @@!       @@!  @@@  !@@       @@!    @@!    @@! !@@ \n !@!  @!@  !@!  !@!  @!@  !@!       !@!  @!@  !@!       !@!    !@!    !@! @!! \n @!@  !@!  !!@  @!@  !@!  @!!!:!    @!@!!@!   !!@@!!    !!@    @!!     !@!@!  \n !@!  !!!  !!!  !@!  !!!  !!!!!:    !!@!@!     !!@!!!   !!!    !!!      @!!!  \n !!:  !!!  !!:  :!:  !!:  !!:       !!: :!!        !:!  !!:    !!:      !!:   \n :!:  !:!  :!:   ::!!:!   :!:       :!:  !:!      !:!   :!:    :!:      :!:   \n :::: ::   ::    ::::     :: ::::   ::   :::  :::: ::    ::     ::       ::   \n :: :  :   :       :      : :: ::    :   : :  :: : :    :       :        :       \n\n\n   \nGeneral\n\nComplete name                    : IMAX.Journey.Into.Amazing.Caves.2001.720p.BRRip.Xvid.AC3.DiVERSiTY\nFormat                           : AVI\nFormat/Info                      : Audio Video Interleave\nFile size                        : 1.25 GiB\nDuration                         : 39mn 18s\nOverall bit rate                 : 4 539 Kbps\nVideo-Source                     : 720p.BluRay.x264-aAF   \nEncoded by                       : Hibees\n       &lt;a href=&quot;\nhttp://www.imdb.com/title/tt0270444/&quot; rel=&quot;nofollow&quot; target=&quot;_NEW&quot;&gt;\nhttp://www.imdb.com/title/tt0270444/&lt;/a&gt;   \n\n\nVideo\n\nFormat                           : MPEG-4 Visual\nFormat profile                   : Streaming Video@L1\nFormat settings, BVOP            : Yes\nFormat settings, QPel            : No\nFormat settings, GMC             : No warppoints\nFormat settings, Matrix          : Default\nCodec ID                         : XVID\nCodec ID/Hint                    : XviD\nDuration                         : 39mn 18s\nBit rate                         : 4 083 Kbps\nWidth                            : 1 280 pixels\nHeight                           : 720 pixels\nDisplay aspect ratio             : 16/9\nFrame rate                       : 23.976 fps\nResolution                       : 24 bits\nColorimetry                      : 4:2:0\nScan type                        : Progressive\nBits/(Pixel*Frame)               : 0.185\nStream size                      : 1.12 GiB (90%)\nWriting library                  : XviD 1.2.1 (UTC 2008-12-04)\n\n\n\nAudio\n\nFormat                           : AC-3\nFormat/Info                      : Audio Coding 3\nCodec ID                         : 2000\nDuration                         : 39mn 18s\nBit rate mode                    : Constant\nBit rate                         : 448 Kbps\nChannel(s)                       : 6 channels\nChannel positions                : Front: L C R, Surround: L R, LFE\nSampling rate                    : 48.0 KHz\nStream size                      : 126 MiB (10%)\nAlignment                        : Aligned on interleaves\nInterleave, duration             : 64 ms (1.53 video frames)\nInterleave, preload duration     : 192 ms\nTitle                            : aaf-imax.caves.2001.720p.bluray\n\n\n\n\nPlot:\n\nMeet Dr. Hazel Barton and Nancy Aulenbach. These women are compelled to \npush their limits in hostile environments. They are cavers who risk fatal \ndanger for the thrill of discovery. Barton and Aulenbach are extreme \nathletes and extreme scientists - scientists who gather their data in \ntreacherous places where few dare to follow.\n\n\n\nGreets:\n\n\nTo Everyone who makes p2p possible...... Thanks.","torrent":{"xt":"urn:btih:48b2a48ba40b2956fcdba564e47fbae93ec6f040","amp;dn":"IMAX.Journey.Into.Amazing.Caves.2001.720p.BRRip.Xvid.AC3.DiVERSi","amp;tr":["udp%3A%2F%2Ftracker.openbittorrent.com%3A80","udp%3A%2F%2Fopen.demonii.com%3A1337","udp%3A%2F%2Ftracker.coppersurfer.tk%3A6969","udp%3A%2F%2Fexodus.desync.com%3A6969"],"infoHash":"48b2a48ba40b2956fcdba564e47fbae93ec6f040","infoHashBuffer":{"type":"Buffer","data":[72,178,164,139,164,11,41,86,252,219,165,100,228,127,186,233,62,198,240,64]},"announce":[],"urlList":[]}}